<svg xmlns="http://www.w3.org/2000/svg" width="24" height="24" viewBox="0 0 24 24" fill="none">
<mask id="mask0_80_1403" style="mask-type:alpha" maskUnits="userSpaceOnUse" x="0" y="0" width="24" height="24">
<rect width="24" height="24" fill="#D9D9D9"/>
</mask>
<g mask="url(#mask0_80_1403)">
<path d="M19.324 21.9162L16.2682 18.8604C15.9509 19.0636 15.6183 19.241 15.2703 19.3926C14.9224 19.5441 14.5608 19.6712 14.1855 19.7739V18.3263C14.3746 18.2568 14.5599 18.1853 14.7413 18.1119C14.9227 18.0385 15.0971 17.9534 15.2644 17.8566L11.9018 14.4941V18.5056L7.77497 14.3787H4.16442V9.6211H7.02885L2.21057 4.80282L3.2038 3.80957L20.3172 20.923L19.324 21.9162ZM18.6941 16.6114L17.6874 15.6047C18.0349 15.0768 18.3023 14.5074 18.4898 13.8963C18.6773 13.2852 18.7711 12.6473 18.7711 11.9826C18.7711 10.5356 18.3506 9.23151 17.5096 8.07039C16.6685 6.90928 15.5605 6.09924 14.1855 5.64027V4.19124C15.9512 4.69399 17.39 5.6607 18.502 7.09137C19.6141 8.52205 20.1701 10.1525 20.1701 11.9826C20.1701 12.8401 20.0409 13.6604 19.7826 14.4435C19.5243 15.2266 19.1614 15.9492 18.6941 16.6114ZM15.8951 13.8124L14.1855 12.1028V8.39702C14.8516 8.75022 15.3774 9.24845 15.7629 9.89172C16.1485 10.535 16.3413 11.2377 16.3413 11.9999C16.3413 12.3268 16.3041 12.6407 16.2297 12.9415C16.1554 13.2423 16.0438 13.5326 15.8951 13.8124ZM11.9018 9.81915L9.7442 7.65187L11.9018 5.49422V9.81915ZM10.5028 15.1172V13.0951L8.42785 11.0201H5.56342V12.9797H8.35915L10.5028 15.1172Z" fill="white" fill-opacity="0.5"/>
</g>
</svg>