<svg width="108" height="32" viewBox="0 0 108 32" fill="none" xmlns="http://www.w3.org/2000/svg">
<g clip-path="url(#clip0_11_3195)">
<path d="M16.9067 32C25.8758 32 33.1467 24.8366 33.1467 16C33.1467 7.16344 25.8758 0 16.9067 0C7.93758 0 0.666687 7.16344 0.666687 16C0.666687 24.8366 7.93758 32 16.9067 32Z" fill="#FF0000"/>
<path d="M16.9067 25.5999C22.2881 25.5999 26.6507 21.3018 26.6507 15.9999C26.6507 10.698 22.2881 6.3999 16.9067 6.3999C11.5252 6.3999 7.16266 10.698 7.16266 15.9999C7.16266 21.3018 11.5252 25.5999 16.9067 25.5999Z" fill="#FF0000" stroke="white" stroke-width="1.2"/>
<path d="M13.6587 20.7266L22.0947 16.0012L13.6587 11.2732V20.7266ZM50.5774 12.8559C49.8054 16.6599 49.2187 21.3039 48.9107 23.2212H48.6934C48.444 21.2452 47.8574 16.6319 47.0574 12.8879L45.08 3.56922H39.0534V28.7026H42.7907V7.98256L43.16 9.91722L46.96 28.6986H50.6987L54.436 9.91722L54.836 7.97189V28.7012H58.5747V3.56789H52.4907L50.5774 12.8559ZM68.68 24.9279C68.3387 25.6172 67.6 26.0959 66.856 26.0959C65.992 26.0959 65.6507 25.4372 65.6507 23.8212V10.3386H61.3867V24.0586C61.3867 27.4452 62.528 28.9999 65.064 28.9999C66.792 28.9999 68.1814 28.2506 69.1414 26.4546H69.2347L69.604 28.6999H72.94V10.3399H68.676V24.9266L68.68 24.9279ZM81.1894 17.5866C79.7987 16.5972 78.9347 15.9386 78.9347 14.5012C78.9347 13.4839 79.428 12.9146 80.6014 12.9146C81.808 12.9146 82.2094 13.7212 82.2374 16.4799L85.8227 16.3319C86.1 11.8706 84.5854 10.0119 80.6627 10.0119C77.0187 10.0119 75.2254 11.5986 75.2254 14.8626C75.2254 17.8279 76.7094 19.1759 79.1187 20.9452C81.1894 22.5039 82.3947 23.3719 82.3947 24.6306C82.3947 25.5906 81.776 26.2479 80.6947 26.2479C79.428 26.2479 78.6854 25.0786 78.8747 23.0412L75.2614 23.0999C74.7027 26.9026 76.2827 29.1199 80.4814 29.1199C84.1587 29.1199 86.0747 27.4719 86.0747 24.1786C86.0707 21.1826 84.528 19.9826 81.1894 17.5866ZM92.496 10.3386H88.4174V28.6986H92.4974V10.3399L92.496 10.3386ZM90.4867 3.08789C88.9134 3.08789 88.1694 3.65722 88.1694 5.63589C88.1694 7.67322 88.908 8.18122 90.488 8.18122C92.0947 8.18122 92.8054 7.67056 92.8054 5.63589C92.8054 3.75056 92.0947 3.08789 90.4867 3.08789ZM106.211 22.0799L102.473 21.8999C102.473 25.1346 102.104 26.1826 100.839 26.1826C99.572 26.1826 99.3547 25.0132 99.3547 21.2092V17.6492C99.3547 13.9626 99.604 12.7972 100.871 12.7972C102.044 12.7972 102.353 13.9039 102.353 17.3212L106.057 17.0839C106.307 14.2386 105.933 12.2906 104.792 11.1839C103.956 10.3732 102.691 9.98789 100.931 9.98789C96.792 9.98789 95.092 12.1452 95.092 18.1932V20.7692C95.092 26.9999 96.5427 29.0066 100.777 29.0066C102.569 29.0066 103.804 28.6466 104.639 27.8679C105.841 26.7826 106.303 24.9279 106.211 22.0799Z" fill="white"/>
</g>
<defs>
<clipPath id="clip0_11_3195">
<rect width="106.667" height="32" fill="white" transform="translate(0.666687)"/>
</clipPath>
</defs>
</svg>
