<svg xmlns="http://www.w3.org/2000/svg" width="108" height="32" viewBox="0 0 108 32" fill="none">
<g clip-path="url(#clip0_51_135)">
<path d="M16.9067 32C25.8758 32 33.1467 24.8366 33.1467 16C33.1467 7.16344 25.8758 0 16.9067 0C7.93755 0 0.666656 7.16344 0.666656 16C0.666656 24.8366 7.93755 32 16.9067 32Z" fill="#FF0000"/>
<path d="M16.9067 25.5999C22.2881 25.5999 26.6507 21.3018 26.6507 15.9999C26.6507 10.698 22.2881 6.3999 16.9067 6.3999C11.5252 6.3999 7.16266 10.698 7.16266 15.9999C7.16266 21.3018 11.5252 25.5999 16.9067 25.5999Z" fill="#FF0000" stroke="white" stroke-width="1.2"/>
<path d="M13.6586 20.7266L22.0946 16.0012L13.6586 11.2732V20.7266ZM50.5773 12.8559C49.8053 16.6599 49.2186 21.3039 48.9106 23.2212H48.6933C48.444 21.2452 47.8573 16.6319 47.0573 12.8879L45.08 3.56922H39.0533V28.7026H42.7906V7.98256L43.16 9.91722L46.96 28.6986H50.6986L54.436 9.91722L54.836 7.97189V28.7012H58.5746V3.56789H52.4906L50.5773 12.8559ZM68.68 24.9279C68.3386 25.6172 67.6 26.0959 66.856 26.0959C65.992 26.0959 65.6506 25.4372 65.6506 23.8212V10.3386H61.3866V24.0586C61.3866 27.4452 62.528 28.9999 65.064 28.9999C66.792 28.9999 68.1813 28.2506 69.1413 26.4546H69.2346L69.604 28.6999H72.94V10.3399H68.676V24.9266L68.68 24.9279ZM81.1893 17.5866C79.7986 16.5972 78.9346 15.9386 78.9346 14.5012C78.9346 13.4839 79.428 12.9146 80.6013 12.9146C81.808 12.9146 82.2093 13.7212 82.2373 16.4799L85.8226 16.3319C86.1 11.8706 84.5853 10.0119 80.6626 10.0119C77.0186 10.0119 75.2253 11.5986 75.2253 14.8626C75.2253 17.8279 76.7093 19.1759 79.1186 20.9452C81.1893 22.5039 82.3946 23.3719 82.3946 24.6306C82.3946 25.5906 81.776 26.2479 80.6946 26.2479C79.428 26.2479 78.6853 25.0786 78.8746 23.0412L75.2613 23.0999C74.7026 26.9026 76.2826 29.1199 80.4813 29.1199C84.1586 29.1199 86.0746 27.4719 86.0746 24.1786C86.0706 21.1826 84.528 19.9826 81.1893 17.5866ZM92.496 10.3386H88.4173V28.6986H92.4973V10.3399L92.496 10.3386ZM90.4866 3.08789C88.9133 3.08789 88.1693 3.65722 88.1693 5.63589C88.1693 7.67322 88.908 8.18122 90.488 8.18122C92.0946 8.18122 92.8053 7.67056 92.8053 5.63589C92.8053 3.75056 92.0946 3.08789 90.4866 3.08789ZM106.211 22.0799L102.473 21.8999C102.473 25.1346 102.104 26.1826 100.839 26.1826C99.572 26.1826 99.3546 25.0132 99.3546 21.2092V17.6492C99.3546 13.9626 99.604 12.7972 100.871 12.7972C102.044 12.7972 102.353 13.9039 102.353 17.3212L106.057 17.0839C106.307 14.2386 105.933 12.2906 104.792 11.1839C103.956 10.3732 102.691 9.98789 100.931 9.98789C96.792 9.98789 95.092 12.1452 95.092 18.1932V20.7692C95.092 26.9999 96.5426 29.0066 100.777 29.0066C102.569 29.0066 103.804 28.6466 104.639 27.8679C105.841 26.7826 106.303 24.9279 106.211 22.0799Z" fill="white"/>
</g>
<defs>
<clipPath id="clip0_51_135">
<rect width="106.667" height="32" fill="white" transform="translate(0.666656)"/>
</clipPath>
</defs>
</svg>