<svg width="34" height="34" viewBox="0 0 34 34" fill="none" xmlns="http://www.w3.org/2000/svg">
<path d="M12.8333 24.4999L24.5 16.9999L12.8333 9.49992V24.4999ZM17 33.6666C14.6944 33.6666 12.5278 33.2291 10.5 32.3541C8.4722 31.4791 6.70831 30.2916 5.20831 28.7916C3.70831 27.2916 2.52081 25.5277 1.64581 23.4999C0.770813 21.4721 0.333313 19.3055 0.333313 16.9999C0.333313 14.6944 0.770813 12.5277 1.64581 10.4999C2.52081 8.47214 3.70831 6.70825 5.20831 5.20825C6.70831 3.70825 8.4722 2.52075 10.5 1.64575C12.5278 0.770752 14.6944 0.333252 17 0.333252C19.3055 0.333252 21.4722 0.770752 23.5 1.64575C25.5278 2.52075 27.2916 3.70825 28.7916 5.20825C30.2916 6.70825 31.4791 8.47214 32.3541 10.4999C33.2291 12.5277 33.6666 14.6944 33.6666 16.9999C33.6666 19.3055 33.2291 21.4721 32.3541 23.4999C31.4791 25.5277 30.2916 27.2916 28.7916 28.7916C27.2916 30.2916 25.5278 31.4791 23.5 32.3541C21.4722 33.2291 19.3055 33.6666 17 33.6666Z" fill="white" fill-opacity="0.3"/>
</svg>
