<svg xmlns="http://www.w3.org/2000/svg" width="18" height="18" viewBox="0 0 18 18" fill="none">
<mask id="mask0_80_1390" style="mask-type:alpha" maskUnits="userSpaceOnUse" x="0" y="0" width="18" height="18">
<rect width="18" height="18" fill="#D9D9D9"/>
</mask>
<g mask="url(#mask0_80_1390)">
<path d="M13.4063 15.5624H5.3438V6.1124L10.4625 0.993652L11.3438 1.85615C11.425 1.9499 11.4922 2.06642 11.5454 2.20571C11.5985 2.345 11.625 2.47848 11.625 2.60615V2.8499L10.8188 6.1124H15.6563C16.025 6.1124 16.3516 6.25459 16.636 6.53897C16.9204 6.82334 17.0625 7.1499 17.0625 7.51865V8.98224C17.0625 9.06762 17.0532 9.15909 17.0344 9.25667C17.0157 9.35424 16.9938 9.44365 16.9688 9.5249L14.7563 14.6812C14.65 14.9312 14.4672 15.1405 14.2079 15.3093C13.9485 15.478 13.6813 15.5624 13.4063 15.5624ZM6.75005 14.1562H13.4438L15.6563 9.00928V7.51865H9.03755L10.0219 3.43115L6.75005 6.70303V14.1562ZM5.3438 6.1124V7.51865H3.11255V14.1562H5.3438V15.5624H1.7063V6.1124H5.3438Z" fill="white"/>
</g>
</svg>