<svg xmlns="http://www.w3.org/2000/svg" width="32" height="32" viewBox="0 0 32 32" fill="none">
<mask id="mask0_80_1400" style="mask-type:alpha" maskUnits="userSpaceOnUse" x="0" y="0" width="32" height="32">
<rect width="32" height="32" fill="#D9D9D9"/>
</mask>
<g mask="url(#mask0_80_1400)">
<path d="M18.7179 26.8126V24.7459C20.641 24.134 22.1901 23.0229 23.3653 21.4126C24.5405 19.8024 25.1282 17.987 25.1282 15.9665C25.1282 13.946 24.5405 12.1306 23.3653 10.5203C22.1901 8.91006 20.641 7.79895 18.7179 7.187V5.12036C21.1999 5.78532 23.2221 7.11779 24.7845 9.11779C26.3469 11.1178 27.1281 13.4007 27.1281 15.9665C27.1281 18.5323 26.3469 20.8152 24.7845 22.8151C23.2221 24.8151 21.1999 26.1476 18.7179 26.8126ZM4.87183 19.3331V12.6665H9.82049L15.5384 6.94863V25.051L9.82049 19.3331H4.87183ZM18.7179 20.8716V11.0614C19.6171 11.5502 20.3119 12.2387 20.8025 13.1267C21.2931 14.0148 21.5384 14.9725 21.5384 15.9998C21.5384 17.0135 21.291 17.9566 20.7961 18.8293C20.3012 19.7019 19.6085 20.3827 18.7179 20.8716ZM13.5384 11.7998L10.6718 14.6665H6.87176V17.3331H10.6718L13.5384 20.1998V11.7998Z" fill="white" fill-opacity="0.5"/>
</g>
</svg>